<?xml version="1.0" encoding="UTF-8"?>
<svg xmlns="http://www.w3.org/2000/svg" 
     viewBox="41 -1032 1095 1052"
     width="256" height="256">
  <g transform="scale(1, -1)">
    <path d="M1116 834Q1116 739 1080 641Q1049 560 958 395L741 0H254Q152 301 152 438Q152 544 209 721H184Q61 721 61 877Q61 931 87 968Q116 1009 164 1012Q164 944 211 938L276 930Q324 919 339.0 899.5Q354 880 354 829Q354 767 340 721H291Q252 609 252 506Q252 396 330 248Q352 205 393 205Q522 541 559 721Q436 721 436 877Q436 931 462 968Q490 1009 539 1012Q539 944 586 938L651 930Q699 924 714.0 902.5Q729 881 729 829Q729 760 694 721H639Q595 533 473 205Q511 201 526 203Q746 204 870 407Q956 550 956 672Q956 705 950 721H930Q807 721 807 877Q807 931 833 968Q861 1009 909 1012Q909 944 956 938L1022 930Q1075 923 1092 909Q1116 889 1116 834Z" fill="black"/>
  </g>
</svg>
