<?xml version="1.0" encoding="UTF-8"?>
<svg xmlns="http://www.w3.org/2000/svg" 
     viewBox="39.333984375 -645.9200134277344 723.9230041503906 645.9200134277344"
     width="256" height="256">
  <g transform="scale(1, -1)">
    <path d="M623 400C641.6670074462891 397.66700744628906 654.0 390.0 658.2559967041016 379.5C665.4770050048828 361.6840057373047 650.6820068359375 343.22900390625 640.6999969482422 333.38999938964844C610.5350036621094 303.656005859375 572.7960052490234 264.4080047607422 540.7559967041016 224.0C524.0970001220703 202.99000549316406 510.7550048828125 190.0 481.0 190.0H355.75C385.25 226.5 398.5 270.0 404.0 302.5C407.08799743652344 320.7469940185547 409.5610046386719 351.05299377441406 422.5 369.0C438.0 390.5 454.2980041503906 396.3820037841797 475.5 389.8070068359375C491.0 385.0 499.0 387.5 505.0 405.0C516.0279998779297 437.16600036621094 519.5 474.0 514.0 512.5C506.7380065917969 563.3359985351562 470.03199768066406 591.843994140625 426.0 596.0L383.625 600.0C372.4320068359375 601.0970001220703 365.781005859375 608.5119934082031 364.125 619.0C361.81199645996094 633.6439971923828 371.07899475097656 645.9199981689453 353.82899475097656 645.9199981689453C324.82899475097656 645.9199981689453 297.125 588.5 297.125 519.5C297.125 441.76800537109375 310.3179931640625 417.5610046386719 354.0 403.0C370.5 397.5 371.4880065917969 381.6510009765625 363.5 371.0C339.5 339.0 327.5 308.0 322.5 273.0C318.86900329589844 247.58200073242188 316.25 214.5 303.75 190.0H240.5C204.0 190.0 175.5 226.5 168.24400329589844 297.0C159.552001953125 381.4550018310547 170.9080047607422 392.98699951171875 203.0 388.802001953125C217.98500061035156 386.8470001220703 231.2779998779297 375.49400329589844 240.5 404.0C251.5 438.0 255.5 471.5 253.11900329589844 512.9389953613281C250.48199462890625 558.8289947509766 219.93699645996094 592.6699981689453 170.0 596.5L125.83399963378906 600.0C114.37498474121094 600.0 107.98898315429688 608.5119934082031 106.333984375 619.0C104.02198791503906 633.6439971923828 113.28797912597656 645.9199981689453 96.0380859375 645.9199981689453C67.0380859375 645.9199981689453 39.333984375 588.5 39.333984375 519.5C39.333984375 430.0 66.6669921875 411.66700744628906 94.00099182128906 402.66600036621094C105.7139892578125 398.8090057373047 108.29798889160156 391.58900451660156 107.06797790527344 378.33299255371094C102.99998474121094 334.5 105.99998474121094 283.0 116.11698913574219 238.0C125.10598754882812 198.01600646972656 153.99998474121094 86.0 171.17298889160156 20.0C174.74398803710938 6.275390625 177.11997985839844 0.0 195.99998474121094 0.0H520.4999847412109C541.0939788818359 0.0 544.7839813232422 6.5947265625 549.3699798583984 20.0C573.9999847412109 92.0 603.7939910888672 163.12899780273438 645.2439880371094 229.0C682.9999847412109 289.0 729.1489868164062 332.31700134277344 751.1039886474609 390.0C760.9999847412109 416.0 763.2569885253906 438.3580017089844 763.2569885253906 466.0C763.2569885253906 535.5 737.7749786376953 577.0839996337891 684.9999847412109 588.5L637.9999847412109 598.6670074462891C624.7229919433594 601.8170166015625 621.0609893798828 608.3800201416016 619.3839874267578 619.0000152587891C617.0719909667969 633.6440124511719 626.3379821777344 645.9200134277344 609.0879821777344 645.9200134277344C580.0879821777344 645.9200134277344 552.3839874267578 588.5000152587891 552.3839874267578 519.5000152587891C552.3839874267578 430.00001525878906 578.4439849853516 405.5700225830078 622.9999847412109 400.00001525878906Z" fill="black"/>
  </g>
</svg>
